<svg xmlns="http://www.w3.org/2000/svg" width="400" height="600"><path d="M258,682L217,691L336,686Z" fill="#76ac5f" stroke="#76ac5f" stroke-width="1.51"/><path d="M16,-89L125,-87L358,-90Z" fill="#dc8a60" stroke="#dc8a60" stroke-width="1.51"/><path d="M125,-87L257,-80L358,-90Z" fill="#d18e5b" stroke="#d18e5b" stroke-width="1.51"/><path d="M336,686L217,691L413,687Z" fill="#5fa252" stroke="#5fa252" stroke-width="1.51"/><path d="M422,334L416,392L466,407Z" fill="#89c56f" stroke="#89c56f" stroke-width="1.51"/><path d="M435,424L438,456L466,407Z" fill="#74ba62" stroke="#74ba62" stroke-width="1.51"/><path d="M422,334L466,407L466,325Z" fill="#89c172" stroke="#89c172" stroke-width="1.51"/><path d="M466,67L443,75L466,127Z" fill="#9d8e4b" stroke="#9d8e4b" stroke-width="1.51"/><path d="M466,67L466,127L472,36Z" fill="#9a8546" stroke="#9a8546" stroke-width="1.51"/><path d="M472,36L466,127L479,191Z" fill="#99924d" stroke="#99924d" stroke-width="1.51"/><path d="M438,456L415,517L487,469Z" fill="#60b25a" stroke="#60b25a" stroke-width="1.51"/><path d="M466,407L438,456L487,469Z" fill="#6bb05b" stroke="#6bb05b" stroke-width="1.51"/><path d="M472,216L428,258L490,269Z" fill="#95b870" stroke="#95b870" stroke-width="1.51"/><path d="M428,258L466,325L490,269Z" fill="#95c07c" stroke="#95c07c" stroke-width="1.51"/><path d="M479,191L472,216L490,269Z" fill="#92ad65" stroke="#92ad65" stroke-width="1.51"/><path d="M358,-90L430,-73L492,-65Z" fill="#8d6e3c" stroke="#8d6e3c" stroke-width="1.51"/><path d="M430,-73L461,-18L492,-65Z" fill="#896736" stroke="#896736" stroke-width="1.51"/><path d="M461,-18L472,36L492,-65Z" fill="#8f6833" stroke="#8f6833" stroke-width="1.51"/><path d="M479,191L490,269L492,-65Z" fill="#94904c" stroke="#94904c" stroke-width="1.51"/><path d="M472,36L479,191L492,-65Z" fill="#96793f" stroke="#96793f" stroke-width="1.51"/><path d="M487,469L415,517L493,537Z" fill="#51a655" stroke="#51a655" stroke-width="1.51"/><path d="M415,517L469,577L493,537Z" fill="#41a155" stroke="#41a155" stroke-width="1.51"/><path d="M469,577L466,638L493,537Z" fill="#2a924c" stroke="#2a924c" stroke-width="1.51"/><path d="M466,407L487,469L493,388Z" fill="#6fac5b" stroke="#6fac5b" stroke-width="1.51"/><path d="M490,269L466,325L493,388Z" fill="#88b673" stroke="#88b673" stroke-width="1.51"/><path d="M466,325L466,407L493,388Z" fill="#7fb567" stroke="#7fb567" stroke-width="1.51"/><path d="M492,-65L490,269L493,388Z" fill="#90a15b" stroke="#90a15b" stroke-width="1.51"/><path d="M487,469L493,537L493,388Z" fill="#5ea252" stroke="#5ea252" stroke-width="1.51"/><path d="M430,622L466,638L469,577Z" fill="#1d944e" stroke="#1d944e" stroke-width="1.51"/><path d="M466,127L421,191L479,191Z" fill="#9ba85c" stroke="#9ba85c" stroke-width="1.51"/><path d="M430,-73L438,-18L461,-18Z" fill="#937139" stroke="#937139" stroke-width="1.51"/><path d="M438,120L421,191L466,127Z" fill="#a0a859" stroke="#a0a859" stroke-width="1.51"/><path d="M443,75L438,120L466,127Z" fill="#9f9850" stroke="#9f9850" stroke-width="1.51"/><path d="M461,-18L429,23L472,36Z" fill="#99793d" stroke="#99793d" stroke-width="1.51"/><path d="M421,191L472,216L479,191Z" fill="#99b064" stroke="#99b064" stroke-width="1.51"/><path d="M6,676L-29,685L217,691Z" fill="#948b4a" stroke="#948b4a" stroke-width="1.51"/><path d="M438,-18L429,23L461,-18Z" fill="#9a793c" stroke="#9a793c" stroke-width="1.51"/><path d="M428,258L422,334L466,325Z" fill="#98cc84" stroke="#98cc84" stroke-width="1.51"/><path d="M415,517L406,591L469,577Z" fill="#42a858" stroke="#42a858" stroke-width="1.51"/><path d="M443,75L466,67L472,36Z" fill="#9c8344" stroke="#9c8344" stroke-width="1.51"/><path d="M429,23L443,75L472,36Z" fill="#9e8444" stroke="#9e8444" stroke-width="1.51"/><path d="M421,191L423,212L472,216Z" fill="#9dba69" stroke="#9dba69" stroke-width="1.51"/><path d="M423,212L428,258L472,216Z" fill="#9bbe70" stroke="#9bbe70" stroke-width="1.51"/><path d="M406,591L430,622L469,577Z" fill="#2e9f53" stroke="#2e9f53" stroke-width="1.51"/><path d="M430,622L457,664L466,638Z" fill="#148d4a" stroke="#148d4a" stroke-width="1.51"/><path d="M416,392L435,424L466,407Z" fill="#7dc067" stroke="#7dc067" stroke-width="1.51"/><path d="M384,287L422,334L428,258Z" fill="#a6d388" stroke="#a6d388" stroke-width="1.51"/><path d="M430,622L392,660L457,664Z" fill="#23934d" stroke="#23934d" stroke-width="1.51"/><path d="M392,660L413,687L457,664Z" fill="#258e4b" stroke="#258e4b" stroke-width="1.51"/><path d="M369,563L406,591L415,517Z" fill="#57b45e" stroke="#57b45e" stroke-width="1.51"/><path d="M385,368L416,392L422,334Z" fill="#98cf77" stroke="#98cf77" stroke-width="1.51"/><path d="M388,189L421,191L438,120Z" fill="#aab663" stroke="#aab663" stroke-width="1.51"/><path d="M392,107L388,189L438,120Z" fill="#afb05d" stroke="#afb05d" stroke-width="1.51"/><path d="M430,-73L386,-34L438,-18Z" fill="#9a773d" stroke="#9a773d" stroke-width="1.51"/><path d="M368,482L415,517L438,456Z" fill="#70be61" stroke="#70be61" stroke-width="1.51"/><path d="M429,23L384,60L443,75Z" fill="#aa8f4b" stroke="#aa8f4b" stroke-width="1.51"/><path d="M392,107L438,120L443,75Z" fill="#a89e53" stroke="#a89e53" stroke-width="1.51"/><path d="M384,60L392,107L443,75Z" fill="#b09c52" stroke="#b09c52" stroke-width="1.51"/><path d="M386,-34L429,23L438,-18Z" fill="#a37e3f" stroke="#a37e3f" stroke-width="1.51"/><path d="M435,424L365,431L438,456Z" fill="#80c466" stroke="#80c466" stroke-width="1.51"/><path d="M365,431L368,482L438,456Z" fill="#83c966" stroke="#83c966" stroke-width="1.51"/><path d="M368,482L386,516L415,517Z" fill="#70c063" stroke="#70c063" stroke-width="1.51"/><path d="M416,392L365,431L435,424Z" fill="#8ac96b" stroke="#8ac96b" stroke-width="1.51"/><path d="M386,516L369,563L415,517Z" fill="#65bb62" stroke="#65bb62" stroke-width="1.51"/><path d="M423,212L367,236L428,258Z" fill="#abcb77" stroke="#abcb77" stroke-width="1.51"/><path d="M386,-34L359,28L429,23Z" fill="#b08a46" stroke="#b08a46" stroke-width="1.51"/><path d="M358,-90L386,-34L430,-73Z" fill="#9e7a41" stroke="#9e7a41" stroke-width="1.51"/><path d="M406,591L365,624L430,622Z" fill="#3da657" stroke="#3da657" stroke-width="1.51"/><path d="M365,624L392,660L430,622Z" fill="#3ba154" stroke="#3ba154" stroke-width="1.51"/><path d="M359,28L384,60L429,23Z" fill="#b4924c" stroke="#b4924c" stroke-width="1.51"/><path d="M367,236L384,287L428,258Z" fill="#b0d381" stroke="#b0d381" stroke-width="1.51"/><path d="M384,287L359,319L422,334Z" fill="#aeda8a" stroke="#aeda8a" stroke-width="1.51"/><path d="M421,191L388,189L423,212Z" fill="#aac06c" stroke="#aac06c" stroke-width="1.51"/><path d="M388,189L367,236L423,212Z" fill="#b1c973" stroke="#b1c973" stroke-width="1.51"/><path d="M359,319L385,368L422,334Z" fill="#a7d882" stroke="#a7d882" stroke-width="1.51"/><path d="M385,368L365,431L416,392Z" fill="#98d172" stroke="#98d172" stroke-width="1.51"/><path d="M89,665L6,676L217,691Z" fill="#949d57" stroke="#949d57" stroke-width="1.51"/><path d="M331,117L388,189L392,107Z" fill="#bfba62" stroke="#bfba62" stroke-width="1.51"/><path d="M392,660L336,686L413,687Z" fill="#3e9850" stroke="#3e9850" stroke-width="1.51"/><path d="M369,563L365,624L406,591Z" fill="#51b15c" stroke="#51b15c" stroke-width="1.51"/><path d="M332,583L365,624L369,563Z" fill="#62b75e" stroke="#62b75e" stroke-width="1.51"/><path d="M341,426L365,431L385,368Z" fill="#a1d672" stroke="#a1d672" stroke-width="1.51"/><path d="M358,-90L337,-70L386,-34Z" fill="#ac8144" stroke="#ac8144" stroke-width="1.51"/><path d="M337,-70L341,-40L386,-34Z" fill="#b38544" stroke="#b38544" stroke-width="1.51"/><path d="M341,-40L359,28L386,-34Z" fill="#b98a45" stroke="#b98a45" stroke-width="1.51"/><path d="M331,117L308,166L388,189Z" fill="#cbc668" stroke="#cbc668" stroke-width="1.51"/><path d="M384,60L337,83L392,107Z" fill="#bfa657" stroke="#bfa657" stroke-width="1.51"/><path d="M337,83L331,117L392,107Z" fill="#c7b15c" stroke="#c7b15c" stroke-width="1.51"/><path d="M365,624L336,686L392,660Z" fill="#4ba354" stroke="#4ba354" stroke-width="1.51"/><path d="M341,-40L323,7L359,28Z" fill="#c59249" stroke="#c59249" stroke-width="1.51"/><path d="M367,236L327,258L384,287Z" fill="#c0dc85" stroke="#c0dc85" stroke-width="1.51"/><path d="M313,381L341,426L385,368Z" fill="#afdd76" stroke="#afdd76" stroke-width="1.51"/><path d="M317,519L369,563L386,516Z" fill="#76c465" stroke="#76c465" stroke-width="1.51"/><path d="M327,222L367,236L388,189Z" fill="#c0d377" stroke="#c0d377" stroke-width="1.51"/><path d="M308,166L327,222L388,189Z" fill="#cbd072" stroke="#cbd072" stroke-width="1.51"/><path d="M359,319L313,381L385,368Z" fill="#b6df80" stroke="#b6df80" stroke-width="1.51"/><path d="M368,482L317,519L386,516Z" fill="#82c966" stroke="#82c966" stroke-width="1.51"/><path d="M359,28L337,83L384,60Z" fill="#c49f53" stroke="#c49f53" stroke-width="1.51"/><path d="M327,258L359,319L384,287Z" fill="#c1e18e" stroke="#c1e18e" stroke-width="1.51"/><path d="M316,322L313,381L359,319Z" fill="#c5e687" stroke="#c5e687" stroke-width="1.51"/><path d="M327,258L316,322L359,319Z" fill="#cce993" stroke="#cce993" stroke-width="1.51"/><path d="M323,632L336,686L365,624Z" fill="#5aab57" stroke="#5aab57" stroke-width="1.51"/><path d="M325,487L317,519L368,482Z" fill="#90cf68" stroke="#90cf68" stroke-width="1.51"/><path d="M365,431L341,426L368,482Z" fill="#97d26b" stroke="#97d26b" stroke-width="1.51"/><path d="M341,426L325,487L368,482Z" fill="#98d369" stroke="#98d369" stroke-width="1.51"/><path d="M317,519L332,583L369,563Z" fill="#77c364" stroke="#77c364" stroke-width="1.51"/><path d="M257,-80L337,-70L358,-90Z" fill="#b98647" stroke="#b98647" stroke-width="1.51"/><path d="M332,583L323,632L365,624Z" fill="#62b55d" stroke="#62b55d" stroke-width="1.51"/><path d="M327,222L327,258L367,236Z" fill="#cadc7f" stroke="#cadc7f" stroke-width="1.51"/><path d="M125,-87L189,-70L257,-80Z" fill="#e0926a" stroke="#e0926a" stroke-width="1.51"/><path d="M323,7L337,83L359,28Z" fill="#cb9f51" stroke="#cb9f51" stroke-width="1.51"/><path d="M308,166L284,186L327,222Z" fill="#dad776" stroke="#dad776" stroke-width="1.51"/><path d="M288,319L316,322L327,258Z" fill="#d7ee97" stroke="#d7ee97" stroke-width="1.51"/><path d="M317,519L267,571L332,583Z" fill="#88ca68" stroke="#88ca68" stroke-width="1.51"/><path d="M323,7L264,61L337,83Z" fill="#d9a857" stroke="#d9a857" stroke-width="1.51"/><path d="M313,381L269,413L341,426Z" fill="#bde378" stroke="#bde378" stroke-width="1.51"/><path d="M280,474L325,487L341,426Z" fill="#a7da6b" stroke="#a7da6b" stroke-width="1.51"/><path d="M269,413L280,474L341,426Z" fill="#b7e175" stroke="#b7e175" stroke-width="1.51"/><path d="M337,-70L276,-21L341,-40Z" fill="#c48d47" stroke="#c48d47" stroke-width="1.51"/><path d="M276,-21L323,7L341,-40Z" fill="#ce9349" stroke="#ce9349" stroke-width="1.51"/><path d="M282,626L258,682L323,632Z" fill="#76b661" stroke="#76b661" stroke-width="1.51"/><path d="M278,129L308,166L331,117Z" fill="#dcc769" stroke="#dcc769" stroke-width="1.51"/><path d="M282,626L323,632L332,583Z" fill="#71bb5f" stroke="#71bb5f" stroke-width="1.51"/><path d="M323,632L258,682L336,686Z" fill="#6aac59" stroke="#6aac59" stroke-width="1.51"/><path d="M278,129L331,117L337,83Z" fill="#d8bb61" stroke="#d8bb61" stroke-width="1.51"/><path d="M264,61L278,129L337,83Z" fill="#e1b863" stroke="#e1b863" stroke-width="1.51"/><path d="M257,-80L276,-21L337,-70Z" fill="#cb8e4e" stroke="#cb8e4e" stroke-width="1.51"/><path d="M288,319L313,381L316,322Z" fill="#cfeb8c" stroke="#cfeb8c" stroke-width="1.51"/><path d="M264,258L288,319L327,258Z" fill="#deed95" stroke="#deed95" stroke-width="1.51"/><path d="M267,571L282,626L332,583Z" fill="#81c367" stroke="#81c367" stroke-width="1.51"/><path d="M258,11L264,61L323,7Z" fill="#e0a559" stroke="#e0a559" stroke-width="1.51"/><path d="M327,222L264,258L327,258Z" fill="#d9e487" stroke="#d9e487" stroke-width="1.51"/><path d="M271,515L267,571L317,519Z" fill="#99d370" stroke="#99d370" stroke-width="1.51"/><path d="M284,186L258,242L327,222Z" fill="#e0e182" stroke="#e0e182" stroke-width="1.51"/><path d="M258,242L264,258L327,222Z" fill="#e3e88b" stroke="#e3e88b" stroke-width="1.51"/><path d="M288,319L257,364L313,381Z" fill="#d4ed8d" stroke="#d4ed8d" stroke-width="1.51"/><path d="M280,474L317,519L325,487Z" fill="#9fd66c" stroke="#9fd66c" stroke-width="1.51"/><path d="M280,474L271,515L317,519Z" fill="#a3d770" stroke="#a3d770" stroke-width="1.51"/><path d="M276,-21L258,11L323,7Z" fill="#db9c53" stroke="#db9c53" stroke-width="1.51"/><path d="M174,672L89,665L217,691Z" fill="#91b06b" stroke="#91b06b" stroke-width="1.51"/><path d="M257,364L269,413L313,381Z" fill="#cfeb84" stroke="#cfeb84" stroke-width="1.51"/><path d="M278,129L284,186L308,166Z" fill="#e2d173" stroke="#e2d173" stroke-width="1.51"/><path d="M126,663L89,665L174,672Z" fill="#94aa61" stroke="#94aa61" stroke-width="1.51"/><path d="M257,-80L229,-64L276,-21Z" fill="#d99458" stroke="#d99458" stroke-width="1.51"/><path d="M229,-64L230,-28L276,-21Z" fill="#e1985c" stroke="#e1985c" stroke-width="1.51"/><path d="M264,61L241,116L278,129Z" fill="#eec16d" stroke="#eec16d" stroke-width="1.51"/><path d="M269,413L237,463L280,474Z" fill="#c2e57c" stroke="#c2e57c" stroke-width="1.51"/><path d="M267,571L234,640L282,626Z" fill="#88c56d" stroke="#88c56d" stroke-width="1.51"/><path d="M234,640L258,682L282,626Z" fill="#81ba69" stroke="#81ba69" stroke-width="1.51"/><path d="M278,129L221,158L284,186Z" fill="#edd57a" stroke="#edd57a" stroke-width="1.51"/><path d="M214,313L257,364L288,319Z" fill="#e7f59e" stroke="#e7f59e" stroke-width="1.51"/><path d="M264,258L240,259L288,319Z" fill="#ebf39d" stroke="#ebf39d" stroke-width="1.51"/><path d="M240,259L214,313L288,319Z" fill="#f0f8aa" stroke="#f0f8aa" stroke-width="1.51"/><path d="M258,11L236,42L264,61Z" fill="#edac64" stroke="#edac64" stroke-width="1.51"/><path d="M222,558L267,571L271,515Z" fill="#a1d579" stroke="#a1d579" stroke-width="1.51"/><path d="M231,507L271,515L280,474Z" fill="#b1dd79" stroke="#b1dd79" stroke-width="1.51"/><path d="M224,241L258,242L284,186Z" fill="#eee98e" stroke="#eee98e" stroke-width="1.51"/><path d="M221,158L224,241L284,186Z" fill="#f2e28c" stroke="#f2e28c" stroke-width="1.51"/><path d="M241,116L221,158L278,129Z" fill="#f3cf7b" stroke="#f3cf7b" stroke-width="1.51"/><path d="M237,463L231,507L280,474Z" fill="#bbe27e" stroke="#bbe27e" stroke-width="1.51"/><path d="M231,507L222,558L271,515Z" fill="#acdb7f" stroke="#acdb7f" stroke-width="1.51"/><path d="M222,558L234,640L267,571Z" fill="#96cd79" stroke="#96cd79" stroke-width="1.51"/><path d="M257,364L221,409L269,413Z" fill="#d8ef8d" stroke="#d8ef8d" stroke-width="1.51"/><path d="M230,-28L258,11L276,-21Z" fill="#e59c5a" stroke="#e59c5a" stroke-width="1.51"/><path d="M189,-70L229,-64L257,-80Z" fill="#dc9364" stroke="#dc9364" stroke-width="1.51"/><path d="M225,58L241,116L264,61Z" fill="#f3ba71" stroke="#f3ba71" stroke-width="1.51"/><path d="M221,409L237,463L269,413Z" fill="#cfeb88" stroke="#cfeb88" stroke-width="1.51"/><path d="M214,313L214,361L257,364Z" fill="#ebf7a4" stroke="#ebf7a4" stroke-width="1.51"/><path d="M236,42L225,58L264,61Z" fill="#f3b26c" stroke="#f3b26c" stroke-width="1.51"/><path d="M258,242L240,259L264,258Z" fill="#eeef98" stroke="#eeef98" stroke-width="1.51"/><path d="M214,361L221,409L257,364Z" fill="#e3f398" stroke="#e3f398" stroke-width="1.51"/><path d="M224,241L240,259L258,242Z" fill="#f2f09c" stroke="#f2f09c" stroke-width="1.51"/><path d="M234,640L217,691L258,682Z" fill="#85b66e" stroke="#85b66e" stroke-width="1.51"/><path d="M230,-28L236,42L258,11Z" fill="#eca463" stroke="#eca463" stroke-width="1.51"/><path d="M221,158L166,215L224,241Z" fill="#feea9f" stroke="#feea9f" stroke-width="1.51"/><path d="M185,540L222,558L231,507Z" fill="#b2de8b" stroke="#b2de8b" stroke-width="1.51"/><path d="M222,558L162,575L234,640Z" fill="#a1d187" stroke="#a1d187" stroke-width="1.51"/><path d="M162,575L163,635L234,640Z" fill="#9bc980" stroke="#9bc980" stroke-width="1.51"/><path d="M230,-28L174,21L236,42Z" fill="#f5a870" stroke="#f5a870" stroke-width="1.51"/><path d="M221,409L162,425L237,463Z" fill="#daef97" stroke="#daef97" stroke-width="1.51"/><path d="M171,484L231,507L237,463Z" fill="#c6e68e" stroke="#c6e68e" stroke-width="1.51"/><path d="M224,241L192,289L240,259Z" fill="#f9f6ab" stroke="#f9f6ab" stroke-width="1.51"/><path d="M192,289L214,313L240,259Z" fill="#fafbb5" stroke="#fafbb5" stroke-width="1.51"/><path d="M180,142L221,158L241,116Z" fill="#fdd489" stroke="#fdd489" stroke-width="1.51"/><path d="M179,84L180,142L241,116Z" fill="#ffcd8a" stroke="#ffcd8a" stroke-width="1.51"/><path d="M225,58L179,84L241,116Z" fill="#fcc07e" stroke="#fcc07e" stroke-width="1.51"/><path d="M161,174L166,215L221,158Z" fill="#ffdf93" stroke="#ffdf93" stroke-width="1.51"/><path d="M174,672L217,691L234,640Z" fill="#8ebb7a" stroke="#8ebb7a" stroke-width="1.51"/><path d="M174,21L225,58L236,42Z" fill="#fab176" stroke="#fab176" stroke-width="1.51"/><path d="M162,425L171,484L237,463Z" fill="#d4ea91" stroke="#d4ea91" stroke-width="1.51"/><path d="M229,-64L189,-70L230,-28Z" fill="#e49868" stroke="#e49868" stroke-width="1.51"/><path d="M163,635L174,672L234,640Z" fill="#94c07d" stroke="#94c07d" stroke-width="1.51"/><path d="M214,361L179,390L221,409Z" fill="#e9f6a2" stroke="#e9f6a2" stroke-width="1.51"/><path d="M189,-70L171,-43L230,-28Z" fill="#eb996d" stroke="#eb996d" stroke-width="1.51"/><path d="M171,-43L174,21L230,-28Z" fill="#f49f6c" stroke="#f49f6c" stroke-width="1.51"/><path d="M171,484L185,540L231,507Z" fill="#c0e290" stroke="#c0e290" stroke-width="1.51"/><path d="M214,313L185,311L214,361Z" fill="#f7fcb4" stroke="#f7fcb4" stroke-width="1.51"/><path d="M174,21L179,84L225,58Z" fill="#ffb47b" stroke="#ffb47b" stroke-width="1.51"/><path d="M185,540L162,575L222,558Z" fill="#afd88a" stroke="#afd88a" stroke-width="1.51"/><path d="M166,215L192,289L224,241Z" fill="#fff3ab" stroke="#fff3ab" stroke-width="1.51"/><path d="M180,142L161,174L221,158Z" fill="#ffd98f" stroke="#ffd98f" stroke-width="1.51"/><path d="M179,390L162,425L221,409Z" fill="#e3f09a" stroke="#e3f09a" stroke-width="1.51"/><path d="M192,289L185,311L214,313Z" fill="#fefebc" stroke="#fefebc" stroke-width="1.51"/><path d="M185,311L141,362L214,361Z" fill="#f5f6a8" stroke="#f5f6a8" stroke-width="1.51"/><path d="M141,362L179,390L214,361Z" fill="#eef39f" stroke="#eef39f" stroke-width="1.51"/><path d="M16,-89L66,-77L125,-87Z" fill="#d7633f" stroke="#d7633f" stroke-width="1.51"/><path d="M162,575L139,620L163,635Z" fill="#9fc374" stroke="#9fc374" stroke-width="1.51"/><path d="M171,-43L128,-19L174,21Z" fill="#f2975f" stroke="#f2975f" stroke-width="1.51"/><path d="M179,84L117,106L180,142Z" fill="#ffc178" stroke="#ffc178" stroke-width="1.51"/><path d="M140,274L185,311L192,289Z" fill="#fff6b0" stroke="#fff6b0" stroke-width="1.51"/><path d="M166,215L140,274L192,289Z" fill="#ffeea3" stroke="#ffeea3" stroke-width="1.51"/><path d="M136,221L140,274L166,215Z" fill="#ffe594" stroke="#ffe594" stroke-width="1.51"/><path d="M174,21L109,30L179,84Z" fill="#fba869" stroke="#fba869" stroke-width="1.51"/><path d="M171,484L115,534L185,540Z" fill="#bed77f" stroke="#bed77f" stroke-width="1.51"/><path d="M125,-87L171,-43L189,-70Z" fill="#e38d5f" stroke="#e38d5f" stroke-width="1.51"/><path d="M122,488L115,534L171,484Z" fill="#c5d477" stroke="#c5d477" stroke-width="1.51"/><path d="M109,30L110,88L179,84Z" fill="#fca865" stroke="#fca865" stroke-width="1.51"/><path d="M115,534L136,561L185,540Z" fill="#b5d079" stroke="#b5d079" stroke-width="1.51"/><path d="M136,561L162,575L185,540Z" fill="#b0d07d" stroke="#b0d07d" stroke-width="1.51"/><path d="M116,334L141,362L185,311Z" fill="#f6ee9c" stroke="#f6ee9c" stroke-width="1.51"/><path d="M140,274L116,334L185,311Z" fill="#fef1a6" stroke="#fef1a6" stroke-width="1.51"/><path d="M162,425L125,434L171,484Z" fill="#d7e283" stroke="#d7e283" stroke-width="1.51"/><path d="M108,160L161,174L180,142Z" fill="#ffd07f" stroke="#ffd07f" stroke-width="1.51"/><path d="M117,106L108,160L180,142Z" fill="#fec473" stroke="#fec473" stroke-width="1.51"/><path d="M141,362L162,425L179,390Z" fill="#e8ec92" stroke="#e8ec92" stroke-width="1.51"/><path d="M110,88L117,106L179,84Z" fill="#fdb36b" stroke="#fdb36b" stroke-width="1.51"/><path d="M125,434L122,488L171,484Z" fill="#d0db7a" stroke="#d0db7a" stroke-width="1.51"/><path d="M163,635L126,663L174,672Z" fill="#95b56c" stroke="#95b56c" stroke-width="1.51"/><path d="M128,-19L109,30L174,21Z" fill="#f5995b" stroke="#f5995b" stroke-width="1.51"/><path d="M141,362L125,434L162,425Z" fill="#e4e587" stroke="#e4e587" stroke-width="1.51"/><path d="M161,174L136,221L166,215Z" fill="#ffde8c" stroke="#ffde8c" stroke-width="1.51"/><path d="M125,-87L128,-19L171,-43Z" fill="#e68b56" stroke="#e68b56" stroke-width="1.51"/><path d="M136,561L139,620L162,575Z" fill="#a7c773" stroke="#a7c773" stroke-width="1.51"/><path d="M108,160L136,221L161,174Z" fill="#fed37f" stroke="#fed37f" stroke-width="1.51"/><path d="M139,620L126,663L163,635Z" fill="#98b76a" stroke="#98b76a" stroke-width="1.51"/><path d="M72,382L79,428L125,434Z" fill="#e3d073" stroke="#e3d073" stroke-width="1.51"/><path d="M125,-87L81,-33L128,-19Z" fill="#e57e4d" stroke="#e57e4d" stroke-width="1.51"/><path d="M108,160L68,219L136,221Z" fill="#fecb79" stroke="#fecb79" stroke-width="1.51"/><path d="M68,219L71,276L136,221Z" fill="#ffd080" stroke="#ffd080" stroke-width="1.51"/><path d="M62,589L74,613L136,561Z" fill="#abb260" stroke="#abb260" stroke-width="1.51"/><path d="M89,665L126,663L139,620Z" fill="#98ac60" stroke="#98ac60" stroke-width="1.51"/><path d="M74,613L89,665L139,620Z" fill="#9daa5d" stroke="#9daa5d" stroke-width="1.51"/><path d="M136,561L74,613L139,620Z" fill="#a5b967" stroke="#a5b967" stroke-width="1.51"/><path d="M136,221L71,276L140,274Z" fill="#ffdd8e" stroke="#ffdd8e" stroke-width="1.51"/><path d="M71,276L116,334L140,274Z" fill="#ffe198" stroke="#ffe198" stroke-width="1.51"/><path d="M72,382L125,434L141,362Z" fill="#e9db7f" stroke="#e9db7f" stroke-width="1.51"/><path d="M116,334L72,382L141,362Z" fill="#f2dd87" stroke="#f2dd87" stroke-width="1.51"/><path d="M75,459L122,488L125,434Z" fill="#d5d06f" stroke="#d5d06f" stroke-width="1.51"/><path d="M115,534L62,589L136,561Z" fill="#b2bd68" stroke="#b2bd68" stroke-width="1.51"/><path d="M72,134L108,160L117,106Z" fill="#feb466" stroke="#feb466" stroke-width="1.51"/><path d="M66,-77L81,-33L125,-87Z" fill="#de7146" stroke="#de7146" stroke-width="1.51"/><path d="M81,-33L109,30L128,-19Z" fill="#f0864d" stroke="#f0864d" stroke-width="1.51"/><path d="M109,30L67,79L110,88Z" fill="#fb9858" stroke="#fb9858" stroke-width="1.51"/><path d="M71,276L66,337L116,334Z" fill="#fdd78c" stroke="#fdd78c" stroke-width="1.51"/><path d="M57,537L115,534L122,488Z" fill="#c0c369" stroke="#c0c369" stroke-width="1.51"/><path d="M79,428L75,459L125,434Z" fill="#dccd6e" stroke="#dccd6e" stroke-width="1.51"/><path d="M68,37L67,79L109,30Z" fill="#f88c50" stroke="#f88c50" stroke-width="1.51"/><path d="M57,537L62,589L115,534Z" fill="#b6b560" stroke="#b6b560" stroke-width="1.51"/><path d="M67,161L68,219L108,160Z" fill="#febb6c" stroke="#febb6c" stroke-width="1.51"/><path d="M66,337L72,382L116,334Z" fill="#f5d481" stroke="#f5d481" stroke-width="1.51"/><path d="M75,459L57,537L122,488Z" fill="#c9c265" stroke="#c9c265" stroke-width="1.51"/><path d="M81,-33L68,37L109,30Z" fill="#f2824b" stroke="#f2824b" stroke-width="1.51"/><path d="M110,88L72,134L117,106Z" fill="#fcab62" stroke="#fcab62" stroke-width="1.51"/><path d="M67,79L72,134L110,88Z" fill="#fba05a" stroke="#fba05a" stroke-width="1.51"/><path d="M72,134L67,161L108,160Z" fill="#feb365" stroke="#feb365" stroke-width="1.51"/><path d="M30,306L66,337L71,276Z" fill="#ffca87" stroke="#ffca87" stroke-width="1.51"/><path d="M11,474L57,537L75,459Z" fill="#ccb15b" stroke="#ccb15b" stroke-width="1.51"/><path d="M12,20L68,37L81,-33Z" fill="#ee7041" stroke="#ee7041" stroke-width="1.51"/><path d="M7,-28L12,20L81,-33Z" fill="#e85c39" stroke="#e85c39" stroke-width="1.51"/><path d="M74,613L29,610L89,665Z" fill="#9f9c53" stroke="#9f9c53" stroke-width="1.51"/><path d="M29,610L6,676L89,665Z" fill="#9c8b49" stroke="#9c8b49" stroke-width="1.51"/><path d="M67,161L16,169L68,219Z" fill="#fcac64" stroke="#fcac64" stroke-width="1.51"/><path d="M39,280L30,306L71,276Z" fill="#ffc382" stroke="#ffc382" stroke-width="1.51"/><path d="M68,219L29,228L71,276Z" fill="#ffbf76" stroke="#ffbf76" stroke-width="1.51"/><path d="M29,228L39,280L71,276Z" fill="#ffbe7a" stroke="#ffbe7a" stroke-width="1.51"/><path d="M67,79L39,86L72,134Z" fill="#fa9454" stroke="#fa9454" stroke-width="1.51"/><path d="M72,382L17,408L79,428Z" fill="#e6c06a" stroke="#e6c06a" stroke-width="1.51"/><path d="M66,-77L7,-28L81,-33Z" fill="#e1603c" stroke="#e1603c" stroke-width="1.51"/><path d="M11,474L23,537L57,537Z" fill="#c3a556" stroke="#c3a556" stroke-width="1.51"/><path d="M66,337L27,371L72,382Z" fill="#f2c474" stroke="#f2c474" stroke-width="1.51"/><path d="M17,408L75,459L79,428Z" fill="#debe65" stroke="#debe65" stroke-width="1.51"/><path d="M57,537L25,572L62,589Z" fill="#b3a457" stroke="#b3a457" stroke-width="1.51"/><path d="M39,86L67,79L68,37Z" fill="#f8854e" stroke="#f8854e" stroke-width="1.51"/><path d="M16,169L29,228L68,219Z" fill="#fcad67" stroke="#fcad67" stroke-width="1.51"/><path d="M27,371L17,408L72,382Z" fill="#ecba69" stroke="#ecba69" stroke-width="1.51"/><path d="M39,86L15,111L72,134Z" fill="#f98f52" stroke="#f98f52" stroke-width="1.51"/><path d="M17,408L11,474L75,459Z" fill="#dab15c" stroke="#dab15c" stroke-width="1.51"/><path d="M62,589L29,610L74,613Z" fill="#a79f54" stroke="#a79f54" stroke-width="1.51"/><path d="M16,-89L7,-28L66,-77Z" fill="#d94f37" stroke="#d94f37" stroke-width="1.51"/><path d="M16,169L67,161L72,134Z" fill="#fca45e" stroke="#fca45e" stroke-width="1.51"/><path d="M15,111L16,169L72,134Z" fill="#fa9555" stroke="#fa9555" stroke-width="1.51"/><path d="M12,20L39,86L68,37Z" fill="#f47446" stroke="#f47446" stroke-width="1.51"/><path d="M30,306L27,371L66,337Z" fill="#f8c078" stroke="#f8c078" stroke-width="1.51"/><path d="M23,537L25,572L57,537Z" fill="#b9a155" stroke="#b9a155" stroke-width="1.51"/><path d="M25,572L29,610L62,589Z" fill="#ac9a51" stroke="#ac9a51" stroke-width="1.51"/><path d="M-10,22L-30,73L12,20Z" fill="#e95838" stroke="#e95838" stroke-width="1.51"/><path d="M11,474L-26,508L23,537Z" fill="#c49b4f" stroke="#c49b4f" stroke-width="1.51"/><path d="M-24,310L27,371L30,306Z" fill="#f8b273" stroke="#f8b273" stroke-width="1.51"/><path d="M29,228L-12,241L39,280Z" fill="#fdae6f" stroke="#fdae6f" stroke-width="1.51"/><path d="M-23,261L30,306L39,280Z" fill="#ffb378" stroke="#ffb378" stroke-width="1.51"/><path d="M-12,241L-23,261L39,280Z" fill="#fba96d" stroke="#fba96d" stroke-width="1.51"/><path d="M-30,73L15,111L39,86Z" fill="#f37545" stroke="#f37545" stroke-width="1.51"/><path d="M12,20L-30,73L39,86Z" fill="#f16740" stroke="#f16740" stroke-width="1.51"/><path d="M-16,-88L-12,-30L7,-28Z" fill="#d63d2e" stroke="#d63d2e" stroke-width="1.51"/><path d="M15,111L-39,139L16,169Z" fill="#f4854c" stroke="#f4854c" stroke-width="1.51"/><path d="M-16,-88L7,-28L16,-89Z" fill="#d23f30" stroke="#d23f30" stroke-width="1.51"/><path d="M-39,414L11,474L17,408Z" fill="#daa355" stroke="#daa355" stroke-width="1.51"/><path d="M-24,310L-39,376L27,371Z" fill="#eea766" stroke="#eea766" stroke-width="1.51"/><path d="M16,169L-34,187L29,228Z" fill="#f89a5b" stroke="#f89a5b" stroke-width="1.51"/><path d="M-34,187L-12,241L29,228Z" fill="#f79e5f" stroke="#f79e5f" stroke-width="1.51"/><path d="M25,572L-34,606L29,610Z" fill="#a88b49" stroke="#a88b49" stroke-width="1.51"/><path d="M-34,606L6,676L29,610Z" fill="#9d8043" stroke="#9d8043" stroke-width="1.51"/><path d="M-23,261L-24,310L30,306Z" fill="#fbac76" stroke="#fbac76" stroke-width="1.51"/><path d="M23,537L-33,563L25,572Z" fill="#b4934c" stroke="#b4934c" stroke-width="1.51"/><path d="M-33,563L-34,606L25,572Z" fill="#a98745" stroke="#a98745" stroke-width="1.51"/><path d="M-39,376L17,408L27,371Z" fill="#e8aa60" stroke="#e8aa60" stroke-width="1.51"/><path d="M7,-28L-10,22L12,20Z" fill="#e65235" stroke="#e65235" stroke-width="1.51"/><path d="M-26,508L-33,563L23,537Z" fill="#b7914a" stroke="#b7914a" stroke-width="1.51"/><path d="M-34,606L-29,685L6,676Z" fill="#94723a" stroke="#94723a" stroke-width="1.51"/><path d="M-12,-30L-10,22L7,-28Z" fill="#e14830" stroke="#e14830" stroke-width="1.51"/><path d="M-39,414L-41,489L11,474Z" fill="#ce984b" stroke="#ce984b" stroke-width="1.51"/><path d="M-39,139L-34,187L16,169Z" fill="#f2874e" stroke="#f2874e" stroke-width="1.51"/><path d="M-39,376L-39,414L17,408Z" fill="#e0a057" stroke="#e0a057" stroke-width="1.51"/><path d="M-30,73L-39,139L15,111Z" fill="#ef7142" stroke="#ef7142" stroke-width="1.51"/><path d="M-41,489L-26,508L11,474Z" fill="#c5954a" stroke="#c5954a" stroke-width="1.51"/><path d="M-34,606L-65,625L-29,685Z" fill="#946f37" stroke="#946f37" stroke-width="1.51"/><path d="M-65,625L-66,668L-29,685Z" fill="#8b6634" stroke="#8b6634" stroke-width="1.51"/><path d="M-65,319L-39,376L-24,310Z" fill="#ec9c64" stroke="#ec9c64" stroke-width="1.51"/><path d="M-78,-22L-67,22L-12,-30Z" fill="#d43129" stroke="#d43129" stroke-width="1.51"/><path d="M-16,-88L-61,-59L-12,-30Z" fill="#cd2e2a" stroke="#cd2e2a" stroke-width="1.51"/><path d="M-34,187L-75,210L-12,241Z" fill="#f08e54" stroke="#f08e54" stroke-width="1.51"/><path d="M-12,-30L-67,22L-10,22Z" fill="#de422d" stroke="#de422d" stroke-width="1.51"/><path d="M-67,22L-30,73L-10,22Z" fill="#e34b32" stroke="#e34b32" stroke-width="1.51"/><path d="M-69,484L-41,489L-39,414Z" fill="#c68e46" stroke="#c68e46" stroke-width="1.51"/><path d="M-61,-59L-78,-22L-12,-30Z" fill="#cd2927" stroke="#cd2927" stroke-width="1.51"/><path d="M-75,210L-23,261L-12,241Z" fill="#f2955c" stroke="#f2955c" stroke-width="1.51"/><path d="M-77,519L-33,563L-26,508Z" fill="#b28643" stroke="#b28643" stroke-width="1.51"/><path d="M-80,281L-24,310L-23,261Z" fill="#f39c6a" stroke="#f39c6a" stroke-width="1.51"/><path d="M-71,411L-69,484L-39,414Z" fill="#c98f4b" stroke="#c98f4b" stroke-width="1.51"/><path d="M-76,65L-74,143L-39,139Z" fill="#e1653e" stroke="#e1653e" stroke-width="1.51"/><path d="M-76,65L-39,139L-30,73Z" fill="#e55e3a" stroke="#e55e3a" stroke-width="1.51"/><path d="M-67,22L-76,65L-30,73Z" fill="#dd4a34" stroke="#dd4a34" stroke-width="1.51"/><path d="M-80,281L-65,319L-24,310Z" fill="#ec9b6d" stroke="#ec9b6d" stroke-width="1.51"/><path d="M-75,210L-80,281L-23,261Z" fill="#ea915f" stroke="#ea915f" stroke-width="1.51"/><path d="M-39,139L-74,143L-34,187Z" fill="#e97846" stroke="#e97846" stroke-width="1.51"/><path d="M-74,143L-78,185L-34,187Z" fill="#e47b4a" stroke="#e47b4a" stroke-width="1.51"/><path d="M-85,589L-34,606L-33,563Z" fill="#9f7a3e" stroke="#9f7a3e" stroke-width="1.51"/><path d="M-41,489L-77,519L-26,508Z" fill="#b98844" stroke="#b98844" stroke-width="1.51"/><path d="M-71,411L-39,414L-39,376Z" fill="#d89552" stroke="#d89552" stroke-width="1.51"/><path d="M-65,319L-78,389L-39,376Z" fill="#de965b" stroke="#de965b" stroke-width="1.51"/><path d="M-78,389L-71,411L-39,376Z" fill="#d59353" stroke="#d59353" stroke-width="1.51"/><path d="M-78,185L-75,210L-34,187Z" fill="#e58250" stroke="#e58250" stroke-width="1.51"/><path d="M-85,589L-65,625L-34,606Z" fill="#94723b" stroke="#94723b" stroke-width="1.51"/><path d="M-77,519L-85,589L-33,563Z" fill="#a27c41" stroke="#a27c41" stroke-width="1.51"/><path d="M-69,484L-77,519L-41,489Z" fill="#b58645" stroke="#b58645" stroke-width="1.51"/><path d="M-85,589L-66,668L-65,625Z" fill="#8a6b39" stroke="#8a6b39" stroke-width="1.51"/><path d="M-80,281L-78,389L-65,319Z" fill="#df9465" stroke="#df9465" stroke-width="1.51"/><path d="M-71,411L-78,389L-69,484Z" fill="#c78c4c" stroke="#c78c4c" stroke-width="1.51"/><path d="M-78,-22L-76,65L-67,22Z" fill="#d0392e" stroke="#d0392e" stroke-width="1.51"/><path d="M-78,389L-77,519L-69,484Z" fill="#bb8846" stroke="#bb8846" stroke-width="1.51"/><path d="M-76,65L-78,185L-74,143Z" fill="#dc6941" stroke="#dc6941" stroke-width="1.51"/><path d="M-78,389L-85,589L-77,519Z" fill="#ad8145" stroke="#ad8145" stroke-width="1.51"/><path d="M-78,185L-80,281L-75,210Z" fill="#e08757" stroke="#e08757" stroke-width="1.51"/><path d="M-78,-22L-78,185L-76,65Z" fill="#d75037" stroke="#d75037" stroke-width="1.51"/><path d="M-80,281L-85,589L-78,389Z" fill="#c58b4e" stroke="#c58b4e" stroke-width="1.51"/><path d="M-80,281L-78,185L-78,-22Z" fill="#dc6e44" stroke="#dc6e44" stroke-width="1.51"/></svg>